<svg width="35" height="36" viewBox="0 0 35 36" fill="none" xmlns="http://www.w3.org/2000/svg">
<path d="M31.1874 15.1468V20.4431C31.1874 22.7897 31.1858 24.4498 31.078 25.7467C30.9718 27.0237 30.7706 27.8018 30.4525 28.4119C29.8336 29.6005 28.8622 30.57 27.6703 31.1874C27.0587 31.5047 26.2787 31.7055 24.9987 31.8114C23.6986 31.9189 22.0345 31.9206 19.6824 31.9206H14.7839C12.4317 31.9206 10.7677 31.9189 9.46778 31.8114C8.18745 31.7055 7.40774 31.5047 6.796 31.1874C5.60432 30.57 4.63267 29.6005 4.01363 28.4119C3.69586 27.8018 3.49465 27.0237 3.38829 25.7467C3.28037 24.4498 3.27901 22.7897 3.27901 20.4431V15.5565C3.27901 13.21 3.28037 11.55 3.38829 10.2532C3.49465 8.97597 3.69586 8.19814 4.01363 7.58787C4.63267 6.39907 5.60432 5.42976 6.796 4.81221C7.40774 4.4952 8.18745 4.29448 9.46778 4.18841C10.7677 4.08071 12.4316 4.0794 14.7839 4.0794H20.0931C20.1405 2.93284 20.37 1.83313 20.7532 0.80829H14.711C12.4481 0.808249 10.648 0.80825 9.1964 0.928504C7.70965 1.05166 6.44223 1.30942 5.28446 1.90939C3.49387 2.83728 2.03393 4.29374 1.1038 6.08001C0.502386 7.23496 0.244 8.49933 0.120545 9.98249C7.08486e-07 11.4306 0 13.2263 0 15.4838V20.5158C0 22.7733 7.08486e-07 24.5692 0.120545 26.0174C0.244 27.5005 0.502386 28.7648 1.1038 29.9199C2.03393 31.7059 3.49387 33.1624 5.28446 34.0905C6.44223 34.6904 7.70965 34.948 9.1964 35.0715C10.648 35.1917 12.448 35.1917 14.7109 35.1917H19.7553C22.0181 35.1917 23.8183 35.1917 25.27 35.0715C26.7567 34.948 28.024 34.6904 29.1819 34.0905C30.9722 33.1624 32.4322 31.7059 33.3626 29.9199C33.9639 28.7648 34.2221 27.5005 34.3459 26.0174C34.4664 24.5692 34.4664 22.7733 34.4664 20.5162V14.4882C33.4389 14.8706 32.3367 15.0995 31.1874 15.1468Z" fill="white"/>
</svg>
